<?xml version="1.0" encoding="UTF-8" standalone="no"?>
<!-- Created with Inkscape (http://www.inkscape.org/) -->

<svg
   xmlns:dc="http://purl.org/dc/elements/1.1/"
   xmlns:cc="http://creativecommons.org/ns#"
   xmlns:rdf="http://www.w3.org/1999/02/22-rdf-syntax-ns#"
   xmlns:svg="http://www.w3.org/2000/svg"
   xmlns="http://www.w3.org/2000/svg"
   xmlns:sodipodi="http://sodipodi.sourceforge.net/DTD/sodipodi-0.dtd"
   xmlns:inkscape="http://www.inkscape.org/namespaces/inkscape"
   width="210mm"
   height="297mm"
   viewBox="0 0 210 297"
   version="1.1"
   id="svg4510"
   sodipodi:docname="drink.svg"
   inkscape:export-filename="C:\Users\jarek\OneDrive\Desktop\ikonki\wódka.png"
   inkscape:export-xdpi="300"
   inkscape:export-ydpi="300"
   inkscape:version="0.92.2 (5c3e80d, 2017-08-06)">
  <defs
     id="defs4504" />
  <sodipodi:namedview
     id="base"
     pagecolor="#eeeeee"
     bordercolor="#666666"
     borderopacity="1.0"
     inkscape:pageopacity="0"
     inkscape:pageshadow="2"
     inkscape:zoom="0.57875767"
     inkscape:cx="826.04435"
     inkscape:cy="251.9111"
     inkscape:document-units="mm"
     inkscape:current-layer="g5371"
     showgrid="false"
     inkscape:window-width="1366"
     inkscape:window-height="705"
     inkscape:window-x="-8"
     inkscape:window-y="-8"
     inkscape:window-maximized="1" />
  <metadata
     id="metadata4507">
    <rdf:RDF>
      <cc:Work
         rdf:about="">
        <dc:format>image/svg+xml</dc:format>
        <dc:type
           rdf:resource="http://purl.org/dc/dcmitype/StillImage" />
        <dc:title />
      </cc:Work>
    </rdf:RDF>
  </metadata>
  <g
     inkscape:label="Layer 1"
     inkscape:groupmode="layer"
     id="layer1">
    <g
       id="g5191"
       transform="matrix(1.3659066,0,0,1.3659066,-60.691706,-79.40173)"
       style="fill:#ececec">
      <circle
         r="46"
         cy="171"
         cx="126"
         id="path5187"
         style="fill:#666666;fill-opacity:1;stroke-width:0.26178861" />
      <circle
         r="40"
         cy="171"
         cx="126"
         id="path5185"
         style="fill:#333333;fill-opacity:1;stroke-width:0.27450979" />
    </g>
    <g
       id="g5371"
       transform="translate(-406.98318,88.734617)">
      <path
         style="fill:#ffffff;stroke-width:0.26458335"
         d="m 509.84884,104.6729 c -0.43656,-0.13777 -2.03165,-0.4189 -3.54465,-0.62472 -1.51299,-0.20583 -2.83801,-0.46982 -2.94447,-0.58666 -0.10646,-0.11684 -0.27173,-0.65248 -0.36726,-1.19033 -0.20609,-1.16033 0.11472,-1.41661 2.05965,-1.64535 2.02806,-0.23852 7.26957,-2.56814 8.43272,-3.747978 0.54459,-0.552398 1.06469,-1.24985 1.15578,-1.549898 0.0911,-0.300048 0.35989,-0.76636 0.59734,-1.036249 0.38578,-0.438478 0.43173,-1.776182 0.43173,-12.567708 V 69.647005 l -0.89959,-1.322917 c -0.49477,-0.727604 -1.11147,-1.561042 -1.37045,-1.852083 -0.25897,-0.291042 -1.49965,-2.240413 -2.75708,-4.331933 -3.57326,-5.943545 -6.94614,-10.949939 -11.2036,-16.629596 -4.98317,-6.647785 -4.90996,-6.534409 -4.46017,-6.907706 0.59454,-0.493421 9.83044,-1.09422 20.02141,-1.302401 l 9.64926,-0.197115 0.27261,-0.948531 c 0.35123,-1.222099 2.07193,-3.709933 3.08296,-4.457414 1.21169,-0.895846 3.98696,-2.134239 4.7834,-2.134472 0.39302,-1.14e-4 1.29131,-0.123895 1.9962,-0.275067 1.05131,-0.225467 1.6971,-0.177983 3.59367,0.264238 2.9497,0.687782 4.53642,1.604349 6.4599,3.731575 1.98657,2.196987 2.36834,2.822017 2.84762,4.662076 0.55702,2.138571 0.49505,3.444772 -0.27982,5.897685 -0.8481,2.684691 -2.19997,4.401455 -4.92604,6.255624 -1.64546,1.119186 -2.35237,1.426172 -3.93564,1.709119 -1.69651,0.303183 -2.20163,0.288966 -4.17656,-0.117553 -1.23566,-0.254346 -2.59545,-0.642821 -3.02176,-0.863278 -0.42632,-0.220457 -0.91892,-0.345652 -1.09466,-0.278212 -0.33299,0.127779 -5.58653,8.804338 -7.55852,12.483377 -0.62401,1.164167 -1.39469,2.473855 -1.71265,2.910417 -0.31795,0.436563 -0.98804,1.448594 -1.48908,2.248959 l -0.911,1.455208 V 81.15638 92.665756 l 0.64736,1.5875 c 1.1815,2.897399 2.3158,3.71712 7.42244,5.363927 1.38244,0.445817 2.98979,0.914017 3.57187,1.040457 1.02935,0.22357 1.05901,0.26103 1.08287,1.36723 0.0135,0.62554 -0.12619,1.28808 -0.31041,1.47229 -0.19503,0.19503 -1.42099,0.41036 -2.93495,0.5155 -1.43,0.0993 -3.55251,0.35093 -4.71668,0.55916 -2.42535,0.43381 -12.20722,0.50709 -13.49375,0.10108 z"
         id="path5379"
         inkscape:connector-curvature="0" />
      <path
         style="fill:#ffff00;stroke-width:0.26458335"
         d="m 511.44461,102.33642 c -0.18468,-0.29882 1.55253,-0.67203 1.95894,-0.42086 0.15497,0.0958 0.28175,0.28617 0.28175,0.4231 0,0.3261 -2.03903,0.32406 -2.24069,-0.002 z m 8.99887,0.005 c -0.0837,-0.13547 -0.0245,-0.32527 0.13171,-0.42178 0.3763,-0.23257 1.57678,0.0785 1.57678,0.40854 0,0.33037 -1.50528,0.34204 -1.70849,0.0132 z m -16.62681,-0.18554 c -0.37205,-0.37204 -0.16979,-0.6265 0.49797,-0.6265 0.42915,0 0.64253,0.12307 0.57339,0.33073 -0.12736,0.3825 -0.79916,0.56797 -1.07136,0.29577 z m 24.03562,-0.0783 c -0.16449,-0.26614 0.2361,-0.42326 1.77416,-0.69584 0.78475,-0.13908 0.99219,-0.0926 0.99219,0.22217 0,0.2189 -0.18833,0.47028 -0.41852,0.55861 -0.64175,0.24626 -2.17748,0.1907 -2.34783,-0.0849 z M 516.1143,99.081902 c 0.0695,-0.489159 0.23918,-0.588214 0.95174,-0.555506 0.9312,0.04274 1.73211,0.533413 1.49553,0.916215 -0.0797,0.129032 -0.68203,0.234603 -1.33841,0.234603 -1.08627,0 -1.18582,-0.05344 -1.10886,-0.595312 z m 3.25839,0.06428 c -0.21016,-0.340043 0.53302,-0.633643 1.07626,-0.425183 0.53016,0.203443 0.23819,0.691634 -0.41365,0.691634 -0.27386,0 -0.57204,-0.119904 -0.66261,-0.266451 z m -3.38801,-3.378246 c -0.98823,-0.129828 -0.85051,-0.894648 0.21674,-1.203642 0.43514,-0.125987 1.11183,-0.386919 1.50375,-0.57985 0.78471,-0.386295 1.05844,-0.215866 1.38995,0.865431 0.12064,0.393483 0.0641,0.633534 -0.16605,0.705045 -0.64198,0.199475 -2.19321,0.311701 -2.94439,0.213016 z m 0.95433,-26.461906 c -0.95294,-0.07293 -1.19706,-0.22284 -1.70731,-1.048451 -0.32746,-0.529844 -0.92695,-1.340985 -1.3322,-1.802532 -0.75365,-0.858367 -2.86003,-4.305546 -2.86003,-4.680572 0,-0.114408 0.45868,0.02598 1.01928,0.311984 1.74916,0.892352 4.30366,1.196699 6.89989,0.822063 1.24701,-0.179946 2.54551,-0.503084 2.88556,-0.718087 0.34004,-0.215006 0.6799,-0.329285 0.75523,-0.253958 0.22659,0.2266 -3.06037,5.748634 -4.19852,7.053424 -0.23601,0.270566 -0.71209,0.373515 -1.4619,0.316129 z m 0.47492,-4.421523 c -0.002,-0.145521 -0.24634,-0.302631 -0.54315,-0.349131 -0.53212,-0.08337 -0.71589,0.216982 -0.35411,0.578763 0.25727,0.25727 0.90151,0.09239 0.89726,-0.229632 z m -3.95467,-3.17749 c -2.5983,-0.729364 -3.22806,-1.389737 -7.3148,-7.670427 -1.70438,-2.619375 -4.21728,-6.263432 -5.58422,-8.097905 -1.36695,-1.834473 -2.48535,-3.517863 -2.48535,-3.740867 0,-0.252829 0.34381,-0.469961 0.91331,-0.5768 1.12113,-0.210325 16.9986,-0.665576 23.69294,-0.679341 2.81171,-0.0058 4.74304,-0.106231 4.53822,-0.236035 -0.41947,-0.265833 -0.44506,-0.940652 -0.11327,-2.986529 0.25645,-1.581295 1.20877,-3.135055 2.26653,-3.697957 0.32151,-0.171095 1.00128,-0.643517 1.5106,-1.049827 0.58892,-0.469808 1.50396,-0.846866 2.51354,-1.035743 3.17976,-0.594886 3.75149,-0.60031 4.81351,-0.04566 0.55403,0.289347 1.50311,0.659697 2.10907,0.822998 0.72617,0.195697 1.35754,0.615436 1.85209,1.231285 0.41268,0.513904 1.24008,1.494455 1.83866,2.179002 1.12997,1.292252 1.86844,2.990492 1.53499,3.530015 -0.10583,0.171246 -0.17253,0.837443 -0.14821,1.480439 0.0243,0.642996 -0.12621,1.547011 -0.33451,2.008922 -0.2083,0.461911 -0.45993,1.12089 -0.55917,1.464399 -0.22737,0.786967 -1.9211,2.682731 -2.39684,2.682731 -0.19633,0 -0.70965,0.344759 -1.14071,0.766132 -0.98688,0.96471 -3.2364,1.757598 -3.93133,1.385681 -0.31237,-0.167177 -0.63029,-0.171371 -0.87368,-0.01153 -0.21044,0.138205 -0.90998,0.223692 -1.55453,0.189972 -1.36056,-0.07118 -1.76093,0.433839 -0.67212,0.847802 0.84993,0.323143 5.41475,0.155691 6.75986,-0.247973 1.63765,-0.491455 4.08179,-2.967636 5.20041,-5.268568 0.90319,-1.857812 0.98517,-2.215004 0.98144,-4.276102 -0.005,-2.795012 -0.5317,-4.071387 -2.68382,-6.504589 -1.69245,-1.913498 -3.47224,-2.984132 -6.08713,-3.661718 -1.32765,-0.344027 -1.97652,-0.365367 -3.8153,-0.125476 -1.21858,0.158978 -2.45372,0.438018 -2.74476,0.620091 -0.29104,0.182072 -0.95943,0.472035 -1.4853,0.644361 -1.00929,0.330739 -1.60859,0.909933 -3.20064,3.093266 -0.73525,1.008325 -1.08616,1.862956 -1.41137,3.437402 -0.49376,2.390444 -0.62514,2.696098 -0.94317,2.194182 -0.36556,-0.576921 -0.25559,-1.603269 0.2936,-2.740227 0.28117,-0.582084 0.51526,-1.303871 0.52019,-1.603973 0.0142,-0.861676 2.2857,-3.697745 3.67648,-4.590207 1.61163,-1.034176 2.32731,-1.277222 5.02507,-1.706497 1.99406,-0.317301 2.39495,-0.302609 4.35851,0.159743 2.80087,0.65951 4.46589,1.635288 6.2635,3.6707 2.06108,2.333734 2.30938,2.766148 2.8116,4.896479 0.50185,2.128723 0.35221,3.462404 -0.70528,6.285974 -0.75086,2.004858 -1.9914,3.363172 -4.61986,5.058461 -2.12247,1.368941 -3.82632,1.984528 -5.49287,1.984528 -1.32607,0 -4.52941,-0.905392 -5.40221,-1.526886 -0.53059,-0.37781 -0.89272,-0.470776 -1.18867,-0.305152 -0.2341,0.131004 -1.53434,2.111337 -2.88943,4.400741 -2.87729,4.861118 -3.65439,5.795356 -5.66807,6.814185 -1.26982,0.642469 -1.86723,0.766947 -4.05018,0.843901 -1.72573,0.06083 -3.02257,-0.0394 -3.97732,-0.307403 z M 537.4978,41.286018 c 0,-0.190468 0.11907,-0.346306 0.26459,-0.346306 0.14552,0 0.26458,0.238125 0.26458,0.529167 0,0.612038 0.66516,0.716715 0.88665,0.139532 0.0859,-0.223982 -0.0905,-0.557741 -0.415,-0.785041 -0.51725,-0.362292 -0.53365,-0.457072 -0.19585,-1.131719 0.20277,-0.404973 0.41604,-0.837172 0.47393,-0.960444 0.0579,-0.123271 -0.11689,-0.105339 -0.38839,0.03985 -0.2715,0.145188 -0.92934,0.263906 -1.46188,0.263818 -0.76442,-1.27e-4 -1.00211,-0.119909 -1.12911,-0.569015 l -0.16085,-0.568854 -0.52313,0.622873 c -0.55214,0.657431 -0.48887,1.096919 0.15791,1.096919 0.33604,0 0.33304,0.106399 -0.0224,0.79375 -0.22575,0.436562 -0.52646,0.79375 -0.66825,0.79375 -0.14178,0 -0.0494,0.214908 0.20523,0.477574 0.258,0.266105 0.53814,0.367689 0.63267,0.229412 0.0978,-0.143069 0.43389,-0.06307 0.79363,0.188898 0.58186,0.407547 0.64633,0.406507 0.95484,-0.0154 0.18196,-0.248852 0.33084,-0.608295 0.33084,-0.798763 z"
         id="path5377"
         inkscape:connector-curvature="0" />
      <path
         style="fill:#d5f6ff;stroke-width:0.26458335"
         d="m 511.44461,102.33642 c -0.18468,-0.29882 1.55253,-0.67203 1.95894,-0.42086 0.15497,0.0958 0.28175,0.28617 0.28175,0.4231 0,0.3261 -2.03903,0.32406 -2.24069,-0.002 z m 8.99887,0.005 c -0.0837,-0.13547 -0.0245,-0.32527 0.13171,-0.42178 0.3763,-0.23257 1.57678,0.0785 1.57678,0.40854 0,0.33037 -1.50528,0.34204 -1.70849,0.0132 z m -16.62681,-0.18554 c -0.37205,-0.37204 -0.16979,-0.6265 0.49797,-0.6265 0.42915,0 0.64253,0.12307 0.57339,0.33073 -0.12736,0.3825 -0.79916,0.56797 -1.07136,0.29577 z m 24.03562,-0.0783 c -0.16449,-0.26614 0.2361,-0.42326 1.77416,-0.69584 0.78475,-0.13908 0.99219,-0.0926 0.99219,0.22217 0,0.2189 -0.18833,0.47028 -0.41852,0.55861 -0.64175,0.24626 -2.17748,0.1907 -2.34783,-0.0849 z M 516.1143,99.081902 c 0.0695,-0.489159 0.23918,-0.588214 0.95174,-0.555506 0.9312,0.04274 1.73211,0.533413 1.49553,0.916215 -0.0797,0.129032 -0.68203,0.234603 -1.33841,0.234603 -1.08627,0 -1.18582,-0.05344 -1.10886,-0.595312 z m 3.25839,0.06428 c -0.21016,-0.340043 0.53302,-0.633643 1.07626,-0.425183 0.53016,0.203443 0.23819,0.691634 -0.41365,0.691634 -0.27386,0 -0.57204,-0.119904 -0.66261,-0.266451 z m -3.38801,-3.378246 c -0.98823,-0.129828 -0.85051,-0.894648 0.21674,-1.203642 0.43514,-0.125987 1.11183,-0.386919 1.50375,-0.57985 0.78471,-0.386295 1.05844,-0.215866 1.38995,0.865431 0.12064,0.393483 0.0641,0.633534 -0.16605,0.705045 -0.64198,0.199475 -2.19321,0.311701 -2.94439,0.213016 z m 0.95433,-26.461906 c -0.95294,-0.07293 -1.19706,-0.22284 -1.70731,-1.048451 -0.32746,-0.529844 -0.92695,-1.340985 -1.3322,-1.802532 -0.75365,-0.858367 -2.86003,-4.305546 -2.86003,-4.680572 0,-0.114408 0.45868,0.02598 1.01928,0.311984 1.74916,0.892352 4.30366,1.196699 6.89989,0.822063 1.24701,-0.179946 2.54551,-0.503084 2.88556,-0.718087 0.34004,-0.215006 0.6799,-0.329285 0.75523,-0.253958 0.22659,0.2266 -3.06037,5.748634 -4.19852,7.053424 -0.23601,0.270566 -0.71209,0.373515 -1.4619,0.316129 z m 0.47492,-4.421523 c -0.002,-0.145521 -0.24634,-0.302631 -0.54315,-0.349131 -0.53212,-0.08337 -0.71589,0.216982 -0.35411,0.578763 0.25727,0.25727 0.90151,0.09239 0.89726,-0.229632 z m -3.95467,-3.17749 c -2.5983,-0.729364 -3.22806,-1.389737 -7.3148,-7.670427 -1.70438,-2.619375 -4.21728,-6.263432 -5.58422,-8.097905 -1.36695,-1.834473 -2.48535,-3.517863 -2.48535,-3.740867 0,-0.626497 1.09323,-0.72772 10.76904,-0.997107 14.01729,-0.39026 24.24632,-0.340889 25.35508,0.122378 0.50465,0.210855 0.91754,0.513209 0.91754,0.671896 0,0.158687 -0.7739,1.469753 -1.71979,2.91348 -0.94588,1.443726 -1.71979,2.75463 -1.71979,2.913118 0,0.613655 -0.78385,1.759933 -1.39341,2.037664 -0.41425,0.188746 -1.51126,1.764401 -3.11594,4.475471 -2.89039,4.883258 -3.66574,5.816245 -5.68086,6.835801 -1.26982,0.642469 -1.86723,0.766947 -4.05018,0.843901 -1.72573,0.06083 -3.02257,-0.0394 -3.97732,-0.307403 z"
         id="path5375"
         inkscape:connector-curvature="0" />
    </g>
  </g>
</svg>
