<?xml version="1.0" encoding="UTF-8" standalone="no"?>
<!-- Created with Inkscape (http://www.inkscape.org/) -->

<svg
   xmlns:dc="http://purl.org/dc/elements/1.1/"
   xmlns:cc="http://creativecommons.org/ns#"
   xmlns:rdf="http://www.w3.org/1999/02/22-rdf-syntax-ns#"
   xmlns:svg="http://www.w3.org/2000/svg"
   xmlns="http://www.w3.org/2000/svg"
   xmlns:sodipodi="http://sodipodi.sourceforge.net/DTD/sodipodi-0.dtd"
   xmlns:inkscape="http://www.inkscape.org/namespaces/inkscape"
   width="210mm"
   height="297mm"
   viewBox="0 0 210 297"
   version="1.1"
   id="svg4510"
   inkscape:version="0.92.2 (5c3e80d, 2017-08-06)"
   sodipodi:docname="piwo.svg">
  <defs
     id="defs4504" />
  <sodipodi:namedview
     id="base"
     pagecolor="#eeeeee"
     bordercolor="#666666"
     borderopacity="1.0"
     inkscape:pageopacity="0"
     inkscape:pageshadow="2"
     inkscape:zoom="0.35368524"
     inkscape:cx="487.55359"
     inkscape:cy="294.2495"
     inkscape:document-units="mm"
     inkscape:current-layer="g5191"
     showgrid="false"
     inkscape:window-width="1366"
     inkscape:window-height="705"
     inkscape:window-x="-8"
     inkscape:window-y="-8"
     inkscape:window-maximized="1" />
  <metadata
     id="metadata4507">
    <rdf:RDF>
      <cc:Work
         rdf:about="">
        <dc:format>image/svg+xml</dc:format>
        <dc:type
           rdf:resource="http://purl.org/dc/dcmitype/StillImage" />
        <dc:title></dc:title>
      </cc:Work>
    </rdf:RDF>
  </metadata>
  <g
     inkscape:label="Layer 1"
     inkscape:groupmode="layer"
     id="layer1">
    <g
       id="g5191"
       transform="matrix(1.3659066,0,0,1.3659066,-62.935933,-79.40173)"
       style="fill:#ececec">
      <circle
         r="46"
         cy="171"
         cx="126"
         id="path5187"
         style="fill:#666666;fill-opacity:1;stroke-width:0.26178861" />
      <circle
         r="40"
         cy="171"
         cx="126"
         id="path5185"
         style="fill:#333333;fill-opacity:1;stroke-width:0.27450979" />
    </g>
    <g
       id="g5218"
       transform="translate(-166.38062,-8.8943078)">
      <g
         id="g5273"
         transform="matrix(0.37563391,0,0,0.36822547,232.55158,105.08113)">
        <g
           transform="matrix(4.6674159,0,0,4.518701,-498.14999,-403.29577)"
           id="g5253">
          <path
             sodipodi:nodetypes="ccccssccsccccscsccccscccc"
             inkscape:connector-curvature="0"
             id="path5257"
             d="m 126.30956,151.63766 c -0.73238,-0.34038 -1.65512,-1.00335 -2.05052,-1.47326 -0.97479,-1.15847 -0.96082,-2.8452 0.0495,-5.97315 1.49683,-4.63433 1.46715,-4.446 1.14002,-7.23422 -0.16623,-1.41677 -0.55513,-3.58334 -0.86423,-4.81461 -0.3091,-1.23127 -0.66977,-2.77446 -0.8015,-3.4293 -0.13173,-0.65484 -0.35395,-1.66687 -0.49383,-2.24896 -0.13988,-0.58208 -0.32657,-1.41552 -0.41487,-1.85208 -1.32429,-6.54769 -1.32224,-6.53496 -1.70596,-10.58333 -0.28089,-2.96345 -0.30446,-8.43813 -0.0467,-10.84556 0.14857,-1.38755 0.25983,-1.62817 0.89261,-1.9304 0.39759,-0.1899 1.11197,-0.83198 1.5875,-1.426839 1.95968,-2.451415 2.41812,-2.726739 3.21439,-1.930469 0.34994,0.349947 0.80455,0.364004 3.44232,0.106439 3.71525,-0.362775 4.29431,-0.209226 6.33731,1.680487 0.82162,0.759962 1.65816,1.521352 1.859,1.691982 0.43738,0.37159 0.61255,1.49111 0.94501,6.03977 0.30405,4.16004 -0.002,9.95105 -0.79119,14.94896 -0.0715,5.26087 -2.32181,10.30856 -2.36513,15.52881 0.004,1.56054 0.55386,3.70094 1.3325,5.18558 0.8455,1.61211 1.57478,3.84434 1.57478,4.8202 0,1.28451 -1.00452,2.53117 -2.76574,3.43245 -1.48272,0.75875 -1.73971,0.80177 -5.1521,0.86248 -3.28493,0.0584 -3.70521,0.0111 -4.92314,-0.55498 z"
             style="fill:#d4aa00;stroke-width:0.26458332" />
          <path
             sodipodi:nodetypes="cccccscscccscc"
             inkscape:connector-curvature="0"
             id="path5255"
             d="m 123.98897,112.32161 c -1.62674,-0.11145 -2.40358,-0.27708 -2.57564,-0.54914 -0.28829,-0.45588 -0.3228,-3.54941 -0.0804,-7.20968 l 0.17129,-2.58679 1.29233,-0.94865 c 0.71078,-0.52176 1.52098,-1.396851 1.80044,-1.944641 0.63239,-1.239595 1.11146,-1.437207 1.92768,-0.79517 0.60791,0.47819 0.76301,0.48322 3.39033,0.1101 3.81795,-0.542208 4.29553,-0.421507 6.62778,1.675051 2.29569,2.06371 2.32522,2.15977 2.4164,7.86145 l 0.0591,3.69498 -1.85209,0.32382 c -2.1821,0.38152 -9.85586,0.59621 -13.17719,0.36867 z"
             style="fill:#ffffff;stroke-width:0.26458332" />
        </g>
      </g>
    </g>
  </g>
</svg>
