<?xml version="1.0" encoding="UTF-8" standalone="no"?>
<!-- Created with Inkscape (http://www.inkscape.org/) -->

<svg
   xmlns:dc="http://purl.org/dc/elements/1.1/"
   xmlns:cc="http://creativecommons.org/ns#"
   xmlns:rdf="http://www.w3.org/1999/02/22-rdf-syntax-ns#"
   xmlns:svg="http://www.w3.org/2000/svg"
   xmlns="http://www.w3.org/2000/svg"
   xmlns:sodipodi="http://sodipodi.sourceforge.net/DTD/sodipodi-0.dtd"
   xmlns:inkscape="http://www.inkscape.org/namespaces/inkscape"
   width="210mm"
   height="297mm"
   viewBox="0 0 210 297"
   version="1.1"
   id="svg4510"
   inkscape:version="0.92.2 (5c3e80d, 2017-08-06)"
   sodipodi:docname="piwo2.svg"
   inkscape:export-filename="C:\Users\jarek\OneDrive\Desktop\ikonki\piwo2.png"
   inkscape:export-xdpi="96"
   inkscape:export-ydpi="96">
  <defs
     id="defs4504" />
  <sodipodi:namedview
     id="base"
     pagecolor="#eeeeee"
     bordercolor="#666666"
     borderopacity="1.0"
     inkscape:pageopacity="0"
     inkscape:pageshadow="2"
     inkscape:zoom="0.70737048"
     inkscape:cx="-14.498487"
     inkscape:cy="458.59543"
     inkscape:document-units="mm"
     inkscape:current-layer="layer1"
     showgrid="false"
     inkscape:window-width="1366"
     inkscape:window-height="705"
     inkscape:window-x="-8"
     inkscape:window-y="-8"
     inkscape:window-maximized="1"
     inkscape:snap-global="false" />
  <metadata
     id="metadata4507">
    <rdf:RDF>
      <cc:Work
         rdf:about="">
        <dc:format>image/svg+xml</dc:format>
        <dc:type
           rdf:resource="http://purl.org/dc/dcmitype/StillImage" />
        <dc:title></dc:title>
      </cc:Work>
    </rdf:RDF>
  </metadata>
  <g
     inkscape:label="Layer 1"
     inkscape:groupmode="layer"
     id="layer1">
    <g
       id="g5191"
       transform="matrix(1.3659066,0,0,1.3659066,-62.935933,-79.40173)"
       style="fill:#ececec">
      <circle
         r="46"
         cy="171"
         cx="126"
         id="path5187"
         style="fill:#ffcc00;fill-opacity:1;stroke-width:0.26178861" />
    </g>
    <path
       style="fill:#ffffff;stroke-width:0.16191168"
       d="m 105.81901,193.22296 c -0.25662,-0.13062 -0.61141,-0.19435 -0.7884,-0.14161 -0.177,0.0527 -1.69662,0.0158 -3.37693,-0.082 -1.680321,-0.0978 -3.694931,-0.20097 -4.476921,-0.22919 -2.52609,-0.0911 -9.5594,-1.30615 -10.44298,-1.80406 -0.27573,-0.15538 -1.05511,-0.3988 -1.73195,-0.54093 -0.67685,-0.14212 -1.53271,-0.41457 -1.90191,-0.60543 -0.36922,-0.19086 -0.89839,-0.45973 -1.17597,-0.59748 -0.77064,-0.38248 -0.95027,-0.69522 -0.76368,-1.32961 0.0877,-0.29808 0.12016,-0.60156 0.0722,-0.67439 -0.0479,-0.0728 -0.0114,-0.37192 0.0812,-0.66462 0.14874,-0.47012 1.11623,-6.00473 1.7384,-9.9447 0.59418,-3.76274 0.66527,-5.7033 0.66951,-18.27599 0.005,-14.75602 -0.17054,-33.79265 -0.32691,-35.45385 l -0.11074,-1.17657 -1.753871,-2.26853 c 0.88686,-0.73339 1.067357,-3.00775 1.772577,-3.68264 1.07292,-1.02678 5.386932,-1.93843 6.283972,-2.4944 1.03152,-0.63931 6.535022,-0.0628 8.092842,-0.33749 0.32168,-0.0567 1.3536,-0.34511 2.29315,-0.64084 l 1.708271,-0.53769 h 4.08893 c 2.63973,0 4.12685,0.0576 4.19591,0.16248 0.0589,0.0894 0.39548,0.1465 0.74812,0.12697 0.35263,-0.0195 0.74133,0.0362 0.86377,0.1238 0.30458,0.21797 1.37854,0.48974 2.45159,0.62037 0.71689,0.0873 1.0028,0.21561 1.45576,0.65345 l 0.56367,0.54485 0.99392,-0.16436 c 0.7346,-0.12147 1.33578,-0.11279 2.3042,0.0333 1.56994,0.23678 1.90522,0.39064 2.51504,1.15414 1.28137,0.0236 2.19621,-1.17269 2.58765,-1.12109 3.72612,1.22417 1.81836,-0.31439 3.70522,2.93833 1.81668,1.1077 0.14822,0.79873 0.95017,1.53212 0.80195,0.7334 -0.97296,2.34236 -0.71165,2.44407 0.89536,0.34849 0.93331,0.48535 0.8867,3.19771 -0.0554,3.22237 0.18302,4.56652 0.89858,5.06659 0.95,0.6639 1.58754,0.72799 7.24248,0.72799 3.33207,0 5.69689,0.0667 6.24722,0.17632 2.52826,0.50341 4.27766,2.10745 5.11481,4.68978 0.83167,2.56545 2.05041,8.64467 2.37386,11.84113 0.096,0.9491 0.25688,2.53746 0.35742,3.5297 0.24306,2.39863 0.0799,10.27294 -0.26809,12.94222 -0.29754,2.28204 -0.72616,3.70075 -1.46923,4.86314 -0.58091,0.90872 -1.92017,2.29811 -2.88336,2.9913 -0.73186,0.52671 -3.64076,2.20281 -5.09717,2.93698 -0.50551,0.25483 -1.2199,0.62204 -1.58754,0.81605 -0.86826,0.45816 -2.43005,1.24572 -4.51196,2.27522 -3.03115,1.49892 -3.99097,2.30664 -4.1851,3.52194 -0.0625,0.39085 -0.0621,0.83504 6.3e-4,0.98709 0.21798,0.52738 0.92983,4.02809 1.03491,5.08943 0.0973,0.98285 0.0707,1.11412 -0.33795,1.66769 -0.24396,0.33048 -0.65407,0.74697 -0.91136,0.92554 -0.69493,0.48232 -2.37127,1.24488 -3.03213,1.3793 -0.31867,0.0648 -0.69466,0.17721 -0.83555,0.24976 -0.39396,0.20287 -2.59481,0.72517 -4.26678,1.01257 -0.82719,0.1422 -1.57918,0.31188 -1.67109,0.37708 -0.0919,0.0652 -0.59887,0.13242 -1.12657,0.14938 -0.5277,0.017 -1.3925,0.1015 -1.92176,0.18789 -0.52927,0.0864 -1.1503,0.18749 -1.38008,0.22466 -0.72406,0.11711 -6.04044,0.41334 -7.43638,0.41435 -0.86157,5.9e-4 -1.46846,0.0795 -1.70699,0.22193 -0.47993,0.28654 -1.50974,0.27228 -2.1018,-0.0291 z m 27.03397,-23.28124 c 0.84103,0 3.55953,-1.32564 3.62657,-1.76846 0.0413,-0.27285 0.18099,-0.36064 0.63779,-0.40084 0.32168,-0.0283 0.69768,-0.14483 0.83554,-0.25891 0.13787,-0.11408 0.53341,-0.31704 0.87898,-0.45101 0.34557,-0.13397 1.03014,-0.49396 1.52128,-0.79999 0.49113,-0.30604 1.0431,-0.55643 1.2266,-0.55643 0.37325,0 1.64951,-0.80094 2.09293,-1.31347 0.1588,-0.18355 0.2904,-0.44695 0.29244,-0.58535 0.002,-0.13839 0.21051,-0.45606 0.46327,-0.70593 l 0.45955,-0.45432 -0.004,-6.43189 c -0.004,-6.13432 -0.0251,-6.57706 -0.46223,-9.5694 -0.2521,-1.72563 -0.60618,-3.67781 -0.78686,-4.33817 -0.18067,-0.66037 -0.47782,-2.07447 -0.66033,-3.14244 -0.31878,-1.86543 -0.69537,-2.95161 -1.02334,-2.95161 -0.0852,0 -0.15487,-0.24531 -0.15487,-0.54514 0,-0.49698 -0.0691,-0.5747 -0.78208,-0.87961 -0.75369,-0.32232 -0.93113,-0.33075 -4.88796,-0.23242 -5.21802,0.12966 -5.23936,0.1328 -6.04355,0.88774 l -0.64902,0.60927 0.007,10.3162 c 0.008,11.69418 0.21636,20.67842 0.5058,21.75746 0.12085,0.45056 0.36073,0.84597 0.6331,1.04359 0.8462,0.61396 1.60883,1.02608 1.664,0.89922 0.0306,-0.0704 0.30499,-0.12809 0.60967,-0.12809 z"
       id="path844"
       inkscape:connector-curvature="0"
       sodipodi:nodetypes="ccsccccccccscccccccscscccccccccccccccscccccsccccccccccccccccccccccccscsscccccccsssccccccccc" />
  </g>
</svg>
