<?xml version="1.0" encoding="UTF-8" standalone="no"?>
<!-- Created with Inkscape (http://www.inkscape.org/) -->

<svg
   xmlns:dc="http://purl.org/dc/elements/1.1/"
   xmlns:cc="http://creativecommons.org/ns#"
   xmlns:rdf="http://www.w3.org/1999/02/22-rdf-syntax-ns#"
   xmlns:svg="http://www.w3.org/2000/svg"
   xmlns="http://www.w3.org/2000/svg"
   xmlns:sodipodi="http://sodipodi.sourceforge.net/DTD/sodipodi-0.dtd"
   xmlns:inkscape="http://www.inkscape.org/namespaces/inkscape"
   width="210mm"
   height="297mm"
   viewBox="0 0 210 297"
   version="1.1"
   id="svg4510"
   sodipodi:docname="wino.svg"
   inkscape:export-filename="C:\Users\jarek\OneDrive\Desktop\ikonki\wino.png"
   inkscape:export-xdpi="300"
   inkscape:export-ydpi="300"
   inkscape:version="0.92.2 (5c3e80d, 2017-08-06)">
  <defs
     id="defs4504" />
  <sodipodi:namedview
     id="base"
     pagecolor="#eeeeee"
     bordercolor="#666666"
     borderopacity="1.0"
     inkscape:pageopacity="0"
     inkscape:pageshadow="2"
     inkscape:zoom="0.35626714"
     inkscape:cx="945.09553"
     inkscape:cy="806.30548"
     inkscape:document-units="mm"
     inkscape:current-layer="g5403"
     showgrid="false"
     inkscape:window-width="1366"
     inkscape:window-height="705"
     inkscape:window-x="-8"
     inkscape:window-y="-8"
     inkscape:window-maximized="1" />
  <metadata
     id="metadata4507">
    <rdf:RDF>
      <cc:Work
         rdf:about="">
        <dc:format>image/svg+xml</dc:format>
        <dc:type
           rdf:resource="http://purl.org/dc/dcmitype/StillImage" />
        <dc:title></dc:title>
      </cc:Work>
    </rdf:RDF>
  </metadata>
  <g
     inkscape:label="Layer 1"
     inkscape:groupmode="layer"
     id="layer1">
    <g
       id="g5191"
       transform="matrix(1.3659066,0,0,1.3659066,-60.691706,-79.40173)"
       style="fill:#ececec">
      <circle
         r="46"
         cy="171"
         cx="126"
         id="path5187"
         style="fill:#666666;fill-opacity:1;stroke-width:0.26178861" />
      <circle
         r="40"
         cy="171"
         cx="126"
         id="path5185"
         style="fill:#333333;fill-opacity:1;stroke-width:0.27450979" />
    </g>
    <g
       id="g5403"
       transform="matrix(0.53079837,0,0,0.53079837,19.13268,81.050874)">
      <path
         style="fill:#ffffff;stroke-width:0.26458332"
         d="m 173.11429,227.15366 c -1.36777,-0.12103 -2.74885,-0.36027 -3.06908,-0.53165 -0.40175,-0.21502 -0.86113,-0.23509 -1.48191,-0.0647 -0.60522,0.16606 -1.67904,0.13186 -3.28093,-0.10449 -1.30969,-0.19323 -3.63141,-0.4763 -5.15937,-0.62905 -3.12984,-0.31288 -8.54348,-1.34671 -10.27743,-1.96267 -1.86209,-0.66147 -3.20702,-1.52734 -3.75856,-2.41975 -0.64813,-1.0487 -0.64646,-1.46418 0.0111,-2.75304 0.4172,-0.8178 0.87249,-1.19575 2.18281,-1.81205 3.10819,-1.46191 10.43874,-2.63559 17.16583,-2.74837 3.20135,-0.0537 4.36575,-0.1572 4.28033,-0.38057 -0.0645,-0.16877 0.0709,-0.67084 0.30094,-1.11571 0.66719,-1.29021 2.20344,-5.85178 2.50598,-7.44098 0.44932,-2.36028 0.78323,-8.18733 1.10677,-19.31459 0.47491,-16.33325 -0.1412,-35.07444 -1.3415,-40.80635 -0.55972,-2.67291 -1.16643,-3.47138 -5.53256,-7.28125 -7.16306,-6.25044 -10.37606,-9.80431 -14.77136,-16.33844 -3.74463,-5.56683 -7.13107,-13.9197 -8.52605,-21.03003 -1.16785,-5.952638 -1.45863,-9.106042 -1.45206,-15.747049 0.011,-11.135122 0.92061,-17.400704 4.37598,-30.142979 1.56893,-5.785714 1.83115,-6.495746 2.44511,-6.620961 1.20021,-0.244777 53.1792,-0.342418 54.05161,-0.101535 1.12765,0.31136 1.40701,0.767479 2.56589,4.189434 3.86873,11.423653 5.03957,17.295667 5.88418,29.510322 0.39179,5.665928 0.41052,7.188534 0.13172,10.706343 -0.69527,8.772585 -2.6856,16.675895 -5.83023,23.151045 -1.30112,2.67913 -4.40177,7.71542 -6.20789,10.08329 -2.82386,3.70213 -8.58389,9.54003 -13.89669,14.08455 -2.63859,2.25703 -3.38816,4.51037 -4.15043,12.47695 -0.4243,4.43438 -0.49367,7.59459 -0.49367,22.48958 0,17.37798 0.15983,21.60992 1.06549,28.21136 0.65444,4.77028 2.14773,9.80491 3.26182,10.99727 0.16887,0.18073 5.03837,0.86566 11.94456,1.68008 7.74628,0.9135 11.37709,2.70099 11.37709,5.6011 0,1.85133 -1.2788,2.89252 -4.7625,3.87763 -1.60606,0.45415 -6.68085,1.29145 -10.59367,1.74786 -4.58419,0.53473 -16.50416,0.8551 -20.07129,0.53945 z"
         id="path5409"
         inkscape:connector-curvature="0" />
      <path
         id="path5407"
         transform="matrix(0.26458333,0,0,0.26458333,-137.41894,36.375079)"
         style="fill:#aa0000;stroke-width:0.99999994"
         d="m 1067.7168,260.54297 c 14.2672,46.70052 36.8193,80.62707 77.5605,116.67383 13.42,11.87353 21.5998,19.86329 23.0801,22.54687 0.7399,1.34135 1.4183,2.95567 2.0528,4.83008 1.8553,0.11555 3.8906,0.4328 6.1035,0.98633 0.5582,0.13963 1.1152,0.30705 1.6718,0.47265 0.1067,-0.17461 0.3575,-0.48046 0.3575,-0.48046 l 23.0781,3.42187 c 0,0 3.8279,-0.33848 5.7461,-0.27344 0.4195,-1.59771 0.854,-3.11748 1.3223,-4.47851 2.0145,-5.85551 3.295,-7.6439 10.164,-14.19922 41.1851,-39.30388 49.4564,-48.22624 61.252,-66.07227 20.7673,-31.41989 33.2673,-68.68069 36.541,-108.92773 1.0883,-13.38002 0.6564,-41.59749 -0.6563,-42.91016 -0.292,-0.29204 -0.9406,0.13039 -1.4414,0.93946 -0.7084,1.14459 -2.8598,1.42054 -9.6953,1.24218 -8.0078,-0.20896 -8.5302,-0.11179 -5.8984,1.10547 1.588,0.73447 2.4492,1.60676 1.914,1.9375 -0.5352,0.33077 -5.8839,1.31267 -11.8867,2.1836 -6.0028,0.87093 -13.212,2.23477 -16.0195,3.02929 l -61.4746,1.58594 c -30.5872,0.7891 -102.2362,0.55612 -122.0801,-1.48047 -14.0341,-1.44034 -17.1357,-2.21296 -14.7656,-3.67773 1.436,-0.88753 -2.6614,-1.7832 -10.0742,-2.20117 l -4.5,-0.25391 c -5.9337,-46.58252 4.4311,72.94068 7.6484,84 z"
         inkscape:connector-curvature="0"
         sodipodi:nodetypes="ccccccccccccccccccscsscccc" />
    </g>
  </g>
</svg>
