<?xml version="1.0" encoding="UTF-8" standalone="no"?>
<!-- Created with Inkscape (http://www.inkscape.org/) -->

<svg
   xmlns:dc="http://purl.org/dc/elements/1.1/"
   xmlns:cc="http://creativecommons.org/ns#"
   xmlns:rdf="http://www.w3.org/1999/02/22-rdf-syntax-ns#"
   xmlns:svg="http://www.w3.org/2000/svg"
   xmlns="http://www.w3.org/2000/svg"
   xmlns:sodipodi="http://sodipodi.sourceforge.net/DTD/sodipodi-0.dtd"
   xmlns:inkscape="http://www.inkscape.org/namespaces/inkscape"
   width="210mm"
   height="297mm"
   viewBox="0 0 210 297"
   version="1.1"
   id="svg4510"
   sodipodi:docname="wódka.svg"
   inkscape:export-filename="C:\Users\jarek\OneDrive\Desktop\ikonki\piwo.png"
   inkscape:export-xdpi="300"
   inkscape:export-ydpi="300"
   inkscape:version="0.92.2 (5c3e80d, 2017-08-06)">
  <defs
     id="defs4504" />
  <sodipodi:namedview
     id="base"
     pagecolor="#eeeeee"
     bordercolor="#666666"
     borderopacity="1.0"
     inkscape:pageopacity="0"
     inkscape:pageshadow="2"
     inkscape:zoom="0.20462174"
     inkscape:cx="1144.4293"
     inkscape:cy="581.15269"
     inkscape:document-units="mm"
     inkscape:current-layer="layer1"
     showgrid="false"
     inkscape:window-width="1366"
     inkscape:window-height="705"
     inkscape:window-x="-8"
     inkscape:window-y="-8"
     inkscape:window-maximized="1" />
  <metadata
     id="metadata4507">
    <rdf:RDF>
      <cc:Work
         rdf:about="">
        <dc:format>image/svg+xml</dc:format>
        <dc:type
           rdf:resource="http://purl.org/dc/dcmitype/StillImage" />
        <dc:title></dc:title>
      </cc:Work>
    </rdf:RDF>
  </metadata>
  <g
     inkscape:label="Layer 1"
     inkscape:groupmode="layer"
     id="layer1">
    <g
       id="g5191"
       transform="matrix(1.3659066,0,0,1.3659066,-60.691706,-79.40173)"
       style="fill:#ececec">
      <circle
         r="46"
         cy="171"
         cx="126"
         id="path5187"
         style="fill:#666666;fill-opacity:1;stroke-width:0.26178861" />
      <circle
         r="40"
         cy="171"
         cx="126"
         id="path5185"
         style="fill:#333333;fill-opacity:1;stroke-width:0.27450979" />
      <g
         id="g5299"
         transform="matrix(0.83811362,0,0,0.83811362,118.53748,29.111885)">
        <g
           id="g5309"
           transform="matrix(0.26919543,0,0,0.26919543,-35.750407,109.78947)">
          <path
             inkscape:connector-curvature="0"
             id="path5305"
             d="m 74.013564,339.61086 c -1.794036,-0.17523 -3.555538,-0.65286 -4.261392,-1.15547 -0.946233,-0.67378 -1.11329,-1.35135 -1.241752,-5.03643 -0.06499,-1.86442 -0.201457,-4.5666 -0.303251,-6.00487 -0.354175,-5.00412 -0.576566,-10.2056 -0.683261,-15.98068 -0.236851,-12.82021 -1.512761,-28.49439 -3.098407,-38.06309 -0.255993,-1.5448 -0.692202,-4.29057 -0.969357,-6.10172 -0.277156,-1.81114 -0.671007,-4.12108 -0.875229,-5.13319 -0.204219,-1.01211 -0.455868,-2.3632 -0.559219,-3.00243 -0.103352,-0.63923 -0.404612,-2.16466 -0.669469,-3.38984 -1.028631,-4.75828 -1.671452,-7.68222 -1.847067,-8.40159 -0.160084,-0.65574 -0.129025,-0.80435 0.246618,-1.17999 0.383263,-0.38326 0.722228,-0.4477 3.132685,-0.5955 3.960504,-0.24286 45.423487,-0.19479 48.029957,0.0557 1.17192,0.11261 2.14633,0.21323 2.16535,0.22359 0.88495,0.48192 0.82485,1.78643 -0.15257,3.31183 -0.17067,0.26634 -0.49252,1.35593 -0.71523,2.42131 -0.22271,1.06538 -0.62651,2.98306 -0.89734,4.26152 -0.27083,1.27845 -0.58271,2.97822 -0.69307,3.77725 -0.11036,0.79904 -0.46017,3.0218 -0.77735,4.93949 -0.31719,1.91768 -0.71018,4.48912 -0.87331,5.7143 -0.16314,1.22519 -0.38312,2.88137 -0.48884,3.6804 -0.10573,0.79904 -0.3622,2.93464 -0.56993,4.74578 -0.20773,1.81115 -0.46438,3.90316 -0.57034,4.64893 -0.30279,2.13109 -1.07633,12.58406 -1.26145,17.04607 -0.0619,1.49153 -0.15764,3.19129 -0.21281,3.77725 -0.0552,0.58596 -0.19078,5.07508 -0.30135,9.97582 -0.11058,4.90075 -0.27471,10.0872 -0.36474,11.52547 -0.09,1.43826 -0.25675,4.47351 -0.3705,6.745 -0.23,4.59316 -0.3774,5.16994 -1.49828,5.86269 -1.1508,0.71123 -4.430567,1.12367 -10.626535,1.33633 -6.276007,0.2154 -16.469138,0.21327 -18.692561,-0.004 z"
             style="fill:#d7eef4;stroke-width:0.19370529" />
          <path
             inkscape:connector-curvature="0"
             id="path5303"
             d="m 74.013543,339.61086 c -3.462145,-0.39961 -4.878766,-0.87771 -5.525547,-1.86482 -0.299968,-0.45781 -0.377582,-1.15428 -0.50313,-4.51481 -0.08164,-2.18542 -0.237537,-5.06308 -0.346424,-6.39481 -0.108888,-1.33172 -0.285855,-5.385 -0.393259,-9.00729 -0.107405,-3.62229 -0.239416,-7.67558 -0.293355,-9.0073 -0.05394,-1.33172 -0.0342,-2.76174 0.04386,-3.17781 l 0.141932,-0.75649 0.447337,1.07928 c 0.403465,0.97343 0.891234,1.48355 1.160796,1.21399 0.198339,-0.19834 -1.850697,-19.63091 -2.88049,-27.31791 -0.424856,-3.17137 -1.712524,-10.86875 -2.333107,-13.94678 -0.356224,-1.76683 -0.729095,-2.74834 -0.768996,-2.02422 -0.02225,0.40376 -0.705167,-2.35027 -1.035111,-4.17435 -0.475479,-2.62864 -1.633042,-8.01487 -2.263092,-10.53033 -0.546293,-2.18106 -0.572541,-2.42198 -0.294194,-2.70032 0.479632,-0.47963 4.043871,-0.59169 23.462666,-0.73764 18.016771,-0.13541 27.177881,0.0468 29.018601,0.57712 0.72519,0.20893 0.81877,0.30406 0.87522,0.88967 0.0666,0.69143 -0.1984,1.38473 -0.78823,2.06183 -0.22947,0.26343 -0.58601,1.53221 -1.007,3.58355 -0.35846,1.74664 -0.75527,3.61156 -0.88179,4.14424 -0.12653,0.53269 -0.38908,1.79662 -0.58346,2.80873 -0.19437,1.01211 -0.57321,2.88728 -0.84186,4.16705 -1.34789,6.4208 -2.88717,17.03119 -4.08841,28.18174 -1.37255,12.74082 -1.53294,14.44808 -1.39189,14.81565 0.21456,0.55913 0.53264,0.28755 1.07439,-0.9173 l 0.54436,-1.21066 0.14506,1.22252 c 0.0798,0.67239 0.0928,2.15423 0.0289,3.29299 -0.0639,1.13876 -0.16665,4.46758 -0.22834,7.39737 -0.0617,2.92979 -0.191,6.59082 -0.28735,8.13562 -0.0964,1.5448 -0.27286,4.81358 -0.39225,7.26395 -0.25216,5.17553 -0.36071,5.56737 -1.72855,6.23946 -1.09283,0.53698 -2.930553,0.79395 -7.845063,1.097 -4.533665,0.27956 -18.135842,0.3542 -20.242203,0.11108 z m 20.435908,-3.83986 0.581116,-0.12374 0.223394,-4.45384 c 0.299275,-5.96667 0.327568,-13.26744 0.05142,-13.26744 -0.115199,0 -1.226583,0.30839 -2.469743,0.68532 -5.657235,1.71527 -8.899424,1.64773 -14.868427,-0.3097 -1.659376,-0.54417 -3.075244,-0.93084 -3.146372,-0.85928 -0.266225,0.26785 0.18843,17.799 0.469214,18.09256 0.268185,0.28039 2.518357,0.36107 10.055251,0.3605 4.687668,-3.9e-4 8.784535,-0.0563 9.104149,-0.12438 z m -5.13319,-27.53607 c 3.485914,-0.24282 5.995097,-0.65736 6.960641,-1.14994 1.6617,-0.84774 1.917248,-1.55853 3.205865,-8.91695 0.38247,-2.18403 0.864283,-4.88622 1.070703,-6.00486 0.20641,-1.11865 0.76463,-4.30026 1.24048,-7.07025 1.4623,-8.51222 1.91762,-10.83174 3.80245,-19.37053 1.12844,-5.11218 1.94297,-8.38904 3.17783,-12.78455 0.47889,-1.7046 0.87304,-3.2882 0.8759,-3.5191 0.005,-0.41457 -0.0334,-0.43593 -2.12557,-1.17884 -0.167,-0.0593 0.1213,-0.21999 0.67797,-0.37787 1.5315,-0.43437 1.53764,-0.43742 1.31988,-0.65518 -0.40668,-0.40668 -6.05061,-0.57971 -22.43376,-0.68777 -15.319044,-0.10103 -24.096863,0.0393 -24.448481,0.39094 -0.06074,0.0607 -0.0027,0.24024 0.128915,0.39886 0.194534,0.2344 0.158443,0.40205 -0.19271,0.8952 -0.404359,0.56787 -0.416913,0.67701 -0.19575,1.70175 0.129976,0.60223 0.439972,1.75265 0.688881,2.55649 1.21049,3.90924 3.036108,11.21365 4.935987,19.7492 0.201566,0.90557 0.858851,4.3051 1.460631,7.55451 1.201043,6.4852 3.649088,18.92053 4.437963,22.5435 1.092375,5.01683 1.504935,5.30343 8.63249,5.99692 1.468084,0.14283 4.10118,0.11506 6.779685,-0.0715 z"
             style="fill:#5fbcd3;stroke-width:0.19370529" />
        </g>
      </g>
      <g
         id="g5322"
         transform="matrix(0.79547779,0,0,0.79547779,55.066593,-5.6897117)">
        <path
           style="fill:#d7eef4;stroke-width:0.19370529"
           d="m 86.835276,256.47592 c -3.321313,-0.68989 -4.420318,-1.58244 -4.813365,-3.90917 -0.261489,-1.54794 -0.26767,-38.21609 -0.0066,-39.42534 0.182166,-0.84392 1.25356,-2.38971 3.560927,-5.13764 l 0.774821,-0.92277 0.0079,-3.98845 c 0.0077,-3.9275 0.01708,-4.01675 0.610538,-5.83917 0.701663,-2.15472 0.99962,-3.97322 1.093249,-6.67232 0.04625,-1.33317 -0.0092,-2.05783 -0.177978,-2.32447 -0.171247,-0.27059 -0.230815,-1.11318 -0.197546,-2.79434 0.06247,-3.15697 -0.161634,-3.0028 4.318134,-2.97045 2.527168,0.0182 3.487377,0.0924 3.789079,0.29276 0.371027,0.24636 0.407502,0.47338 0.445567,2.77332 0.03348,2.02319 -0.01596,2.57036 -0.257109,2.84478 -0.244334,0.27805 -0.25676,0.43153 -0.0684,0.84493 0.17668,0.38777 0.177147,0.56904 0.002,0.78006 -0.446543,0.53805 0.02022,4.88298 0.798171,7.42994 0.733379,2.40103 0.824258,4.98997 0.27954,7.96342 -0.162254,0.8857 0.337153,2.06798 1.384417,3.27743 0.41796,0.48269 1.282273,1.64819 1.920699,2.59 l 1.16077,1.71238 -0.0363,1.86523 c -0.02,1.02587 -0.12714,6.00567 -0.2382,11.06622 -0.11105,5.06055 -0.25005,12.81845 -0.30889,17.23977 -0.14101,10.59613 -0.32175,11.46724 -2.623529,12.64442 -2.264688,1.1582 -7.547767,1.46334 -11.41784,0.65946 z"
           id="path5328"
           inkscape:connector-curvature="0"
           sodipodi:nodetypes="csccccccccccccccsscccccsccc" />
        <path
           style="fill:#37abc8;stroke-width:0.19370529"
           d="m 93.811884,256.28652 c 0.05504,-0.0607 0.739263,-0.36718 1.520499,-0.68106 0.781239,-0.31388 1.346378,-0.60935 1.255869,-0.65659 -0.09051,-0.0472 -0.556817,-0.20366 -1.036238,-0.34759 -1.238001,-0.37167 -1.313153,-0.5134 -0.461328,-0.87002 0.536453,-0.22459 1.019465,-0.27814 1.685768,-0.18688 1.065734,0.14595 1.316063,0.4937 0.784532,1.08983 -0.360443,0.40424 -0.359215,0.40594 0.218639,0.30145 0.319614,-0.0578 0.799034,-0.1705 1.065379,-0.25045 0.476137,-0.14293 0.478344,-0.13866 0.131468,0.25454 -0.583074,0.66093 -2.196304,1.23586 -3.790385,1.35082 -0.81085,0.0585 -1.429242,0.0566 -1.374203,-0.004 z m -9.488136,-0.95947 c -0.467648,-0.23971 -0.97962,-0.63716 -1.137715,-0.88322 -0.280855,-0.43712 -0.274513,-0.44429 0.276536,-0.31295 0.31019,0.0739 1.086258,0.47139 1.724597,0.88322 1.09643,0.70738 1.128159,0.74879 0.573733,0.74879 -0.322784,0 -0.969504,-0.19613 -1.437151,-0.43584 z m -1.9284,-6.84425 c 0.0093,-0.22566 0.05519,-0.27156 0.117029,-0.11703 0.05595,0.13983 0.04908,0.3069 -0.01528,0.37127 -0.06437,0.0644 -0.110148,-0.05 -0.101738,-0.25424 z m 0.117071,-3.88702 c -0.271768,-0.27177 -0.143148,-2.72329 0.155902,-2.97148 0.427217,-0.35455 0.563903,0.17349 0.41462,1.60176 -0.122569,1.17269 -0.312226,1.62801 -0.570522,1.36972 z m 0.167834,-6.20492 C 82.336878,237.51912 82.17789,232.03855 82.228436,222.816 l 0.05477,-9.99281 0.70518,-1.04839 c 0.38785,-0.57662 1.326308,-1.78932 2.085462,-2.69489 1.710408,-2.04029 1.868509,-2.54176 1.618363,-5.13319 -0.235104,-2.43561 -0.01858,-4.81286 0.603464,-6.6253 0.263371,-0.76739 0.575264,-2.0749 0.693095,-2.90558 0.117829,-0.83067 0.31038,-2.08566 0.427891,-2.78885 0.147588,-0.88319 0.151921,-1.38884 0.014,-1.63527 -0.14745,-0.26348 -0.120675,-0.47725 0.102422,-0.81774 0.285792,-0.43617 0.273021,-0.48793 -0.237088,-0.96093 -0.504087,-0.46742 -0.529321,-0.56415 -0.387997,-1.48728 0.195346,-1.27603 0.20733,-2.45914 0.02869,-2.8331 -0.07969,-0.16683 -0.01912,-0.46284 0.138736,-0.67797 0.263714,-0.35941 0.488484,-0.37878 3.824221,-0.32948 2.100476,0.031 3.625273,0.13365 3.743476,0.25189 0.10969,0.10973 0.220315,1.045 0.245832,2.07838 0.02552,1.03338 0.05609,2.08213 0.06793,2.33057 0.01184,0.24843 -0.161575,0.62229 -0.385378,0.83079 -0.482125,0.44917 -0.504368,0.6231 -0.120427,0.94174 0.223071,0.18514 0.239162,0.3262 0.07269,0.63725 -0.399422,0.74632 0.09454,4.96589 0.91352,7.80344 0.466363,1.61584 0.642441,4.42417 0.409175,6.52605 -0.15023,1.35368 -0.150925,2.11883 -0.0024,2.67517 0.269324,1.00903 -0.07688,0.94811 -0.598298,-0.10528 -0.338207,-0.68327 -0.348582,-0.84785 -0.115334,-1.82965 0.140967,-0.59337 0.293799,-2.00361 0.339626,-3.13387 0.08243,-2.03305 0.07361,-2.08377 -0.825191,-4.74578 -0.757767,-2.24429 -0.917442,-2.96899 -0.962326,-4.36759 -0.0296,-0.92225 -0.112717,-1.77213 -0.184711,-1.88862 -0.07199,-0.11649 -0.359845,-0.2118 -0.639671,-0.2118 -0.279825,0 -0.713878,-0.19269 -0.964564,-0.42819 -0.455172,-0.42762 -0.455933,-0.42766 -0.560391,-0.0282 -0.084,0.3212 -0.371157,0.45029 -1.457741,0.65531 -1.63333,0.30819 -1.908913,0.614 -1.910651,2.12022 -7.74e-4,0.58889 -0.271545,2.07313 -0.601925,3.29831 -1.056529,3.91804 -1.078394,4.21956 -0.634747,8.75299 0.114298,1.16796 0.07779,1.37889 -0.371234,2.1451 -0.273898,0.46737 -0.880159,1.27915 -1.347246,1.80395 -1.327896,1.49197 -2.845645,3.51998 -3.063848,4.09391 -0.268801,0.70699 -0.280543,8.91479 -0.02571,17.97415 0.189912,6.75157 0.139589,8.28865 -0.239831,7.3254 z m 10.789429,-48.88537 c 0.629856,-0.17492 0.726395,-0.27775 0.726395,-0.77374 0,-0.3146 0.0066,-0.63738 0.01459,-0.71729 0.02426,-0.24156 -1.117116,-0.49282 -1.641191,-0.36128 -0.351757,0.0883 -0.456323,0.21212 -0.369706,0.43785 0.106224,0.27681 -0.01048,0.29834 -0.968393,0.17866 -1.062291,-0.13273 -1.092341,-0.12346 -1.217554,0.37543 -0.167113,0.66583 0.02597,0.8301 1.082968,0.92134 0.47942,0.0414 1.046008,0.09 1.259084,0.108 0.213076,0.018 0.714288,-0.058 1.113805,-0.16897 z m -0.07264,-3.21016 c 0.664448,-0.13289 0.770527,-0.46089 0.300935,-0.93048 -0.453771,-0.45377 -1.309034,-0.37237 -1.906628,0.18146 -0.564736,0.52338 -0.492511,0.593 0.879298,0.84761 0.06659,0.0124 0.393464,-0.032 0.726395,-0.0986 z m 7.387978,28.57435 c -0.002,-0.27811 -0.0517,-0.93186 -0.11128,-1.45279 -0.1044,-0.91293 -0.0977,-0.92965 0.18685,-0.46287 0.33442,0.54869 0.39641,1.69557 0.11517,2.13076 -0.14765,0.22847 -0.18841,0.18251 -0.19074,-0.2151 z"
           id="path5324"
           inkscape:connector-curvature="0" />
      </g>
    </g>
  </g>
</svg>
